<svg aria-hidden="true" style="position:absolute;width:0;height:0;overflow:hidden" xmlns="http://www.w3.org/2000/svg"><defs>
<symbol id="burger" viewBox="0 0 46 32">
<path fill="#d41443" style="fill:var(--color1, #d41443)" d="M0 1.143h45.714v2.286H0V1.143zM0 14.857h45.714v2.286H0v-2.286zM0 28.571h45.714v2.286H0v-2.286z"/></symbol>
<symbol id="close" viewBox="0 0 32 32">
<path fill="#fff" style="fill:var(--color2, #fff)" d="m1.823 2.719 1.441-1.387L30.18 29.28l-1.441 1.387L1.823 2.719z"/>
<path fill="#fff" style="fill:var(--color2, #fff)" d="m1.327 28.729 27.959-26.9 1.387 1.441-27.959 26.9-1.387-1.441z"/></symbol>
<symbol id="icon-arrow" viewBox="0 0 22 32">
<path fill="#d41443" style="fill:var(--color1, #d41443)" d="M5.44 32c-.64 0-1.6-.32-2.24-.96-1.28-1.28-1.28-3.2 0-4.48L13.76 16 3.2 5.44c-1.28-1.28-1.28-3.2 0-4.48s3.2-1.28 4.48 0l12.8 12.8c.96.64 1.28 1.28 1.28 2.24s-.32 1.6-.96 2.24L8 31.04c-.64.64-1.6.96-2.56.96z"/></symbol>
<symbol id="arrow-right" viewBox="0 0 32 32">
<path d="m19.414 27.414 10-10a2 2 0 0 0 0-2.828l-10-10a2 2 0 1 0-2.828 2.828L23.172 14H4a2 2 0 1 0 0 4h19.172l-6.586 6.586c-.39.39-.586.902-.586 1.414s.195 1.024.586 1.414a2 2 0 0 0 2.828 0z"/></symbol>
<symbol id="cross" viewBox="0 0 32 32">
<path d="m26.667 7.303-1.97-1.97-7.808 7.808-7.808-7.808-1.97 1.97 7.808 7.808-7.808 7.808 1.97 1.97 7.808-7.808 7.808 7.808 1.97-1.97-7.808-7.808 7.808-7.808z"/></symbol>
</defs></svg>