<svg aria-hidden="true" style="position:absolute;width:0;height:0;overflow:hidden" xmlns="http://www.w3.org/2000/svg"><defs><symbol id="icon-arrow" viewBox="0 0 22 32"><path fill="#d41443" style="fill:var(--color1, #d41443)" d="M5.44 32c-.64 0-1.6-.32-2.24-.96-1.28-1.28-1.28-3.2 0-4.48L13.76 16 3.2 5.44c-1.28-1.28-1.28-3.2 0-4.48s3.2-1.28 4.48 0l12.8 12.8c.96.64 1.28 1.28 1.28 2.24s-.32 1.6-.96 2.24L8 31.04c-.64.64-1.6.96-2.56.96z"/></symbol><symbol id="icon-arrow-right2" viewBox="0 0 32 32"><path d="m19.414 27.414 10-10a2 2 0 0 0 0-2.828l-10-10a2 2 0 1 0-2.828 2.828L23.172 14H4a2 2 0 1 0 0 4h19.172l-6.586 6.586c-.39.39-.586.902-.586 1.414s.195 1.024.586 1.414a2 2 0 0 0 2.828 0z"/></symbol></defs></svg>